<mxfile host="Electron" agent="Mozilla/5.0 (Windows NT 10.0; Win64; x64) AppleWebKit/537.36 (KHTML, like Gecko) draw.io/26.0.4 Chrome/128.0.6613.186 Electron/32.2.5 Safari/537.36" version="26.0.4" pages="3">
  <diagram name="Home Page" id="03018318-947c-dd8e-b7a3-06fadd420f32">
    <mxGraphModel dx="1434" dy="4244" grid="1" gridSize="10" guides="1" tooltips="1" connect="1" arrows="1" fold="1" page="1" pageScale="1" pageWidth="1100" pageHeight="850" background="none" math="0" shadow="0">
      <root>
        <mxCell id="0" />
        <mxCell id="1" parent="0" />
        <mxCell id="HMSEAZO2dh3-YYu0u6aI-1" value="" style="rounded=0;whiteSpace=wrap;html=1;" parent="1" vertex="1">
          <mxGeometry x="150" y="-3358.75" width="850" height="840" as="geometry" />
        </mxCell>
        <mxCell id="HMSEAZO2dh3-YYu0u6aI-25" value="" style="rounded=0;whiteSpace=wrap;html=1;" parent="1" vertex="1">
          <mxGeometry x="150" y="-3358.75" width="850" height="60" as="geometry" />
        </mxCell>
        <mxCell id="HMSEAZO2dh3-YYu0u6aI-26" value="Logo/Title" style="text;html=1;align=center;verticalAlign=middle;whiteSpace=wrap;rounded=0;" parent="1" vertex="1">
          <mxGeometry x="150" y="-3353.75" width="120" height="50" as="geometry" />
        </mxCell>
        <mxCell id="HMSEAZO2dh3-YYu0u6aI-32" value="Task" style="text;html=1;align=center;verticalAlign=middle;whiteSpace=wrap;rounded=0;" parent="1" vertex="1">
          <mxGeometry x="485" y="-3360" width="130" height="61.25" as="geometry" />
        </mxCell>
        <mxCell id="HMSEAZO2dh3-YYu0u6aI-33" value="Contact" style="text;html=1;align=center;verticalAlign=middle;whiteSpace=wrap;rounded=0;" parent="1" vertex="1">
          <mxGeometry x="615" y="-3358.75" width="130" height="61.25" as="geometry" />
        </mxCell>
        <mxCell id="HMSEAZO2dh3-YYu0u6aI-34" value="Home" style="text;html=1;align=center;verticalAlign=middle;whiteSpace=wrap;rounded=0;" parent="1" vertex="1">
          <mxGeometry x="355" y="-3360" width="130" height="61.25" as="geometry" />
        </mxCell>
        <mxCell id="HMSEAZO2dh3-YYu0u6aI-36" value="&lt;h1 style=&quot;margin-top: 0px;&quot;&gt;&lt;span style=&quot;white-space: pre;&quot;&gt;&#x9;&lt;/span&gt;&lt;span style=&quot;white-space: pre;&quot;&gt;&#x9;&lt;/span&gt;&lt;span style=&quot;white-space: pre;&quot;&gt;&#x9;&lt;/span&gt;&lt;span style=&quot;white-space: pre;&quot;&gt;&#x9;&lt;/span&gt;&lt;span style=&quot;white-space: pre;&quot;&gt;&#x9;&lt;/span&gt;&lt;span style=&quot;white-space: pre;&quot;&gt;&#x9;&amp;nbsp;&lt;/span&gt;&amp;nbsp;Heading&lt;/h1&gt;&lt;p&gt;Lorem ipsum dolor sit amet, consectetur adipisicing elit, sed do eiusmod tempor incididunt ut labore et dolore magna aliqua.&lt;br&gt;&lt;/p&gt;" style="text;html=1;whiteSpace=wrap;overflow=hidden;rounded=0;" parent="1" vertex="1">
          <mxGeometry x="190" y="-3218.75" width="770" height="180" as="geometry" />
        </mxCell>
        <mxCell id="HMSEAZO2dh3-YYu0u6aI-37" value="Link To Tasks" style="labelPosition=center;verticalLabelPosition=middle;align=center;html=1;shape=mxgraph.basic.button;dx=10;whiteSpace=wrap;" parent="1" vertex="1">
          <mxGeometry x="478.75" y="-3038.75" width="192.5" height="40" as="geometry" />
        </mxCell>
        <mxCell id="HMSEAZO2dh3-YYu0u6aI-41" value="&lt;h1 style=&quot;margin-top: 0px;&quot;&gt;&lt;span style=&quot;white-space: pre;&quot;&gt;&#x9;&lt;/span&gt;&lt;span style=&quot;white-space: pre;&quot;&gt;&#x9;&lt;/span&gt;&lt;span style=&quot;white-space: pre;&quot;&gt;&#x9;&lt;/span&gt;&lt;span style=&quot;white-space: pre;&quot;&gt;&#x9;&lt;/span&gt;&lt;span style=&quot;white-space: pre;&quot;&gt;&#x9;&lt;/span&gt;&lt;span style=&quot;white-space: pre;&quot;&gt;&#x9;&lt;/span&gt;&lt;span style=&quot;white-space: pre;&quot;&gt;&#x9;&lt;/span&gt;Goal&lt;/h1&gt;&lt;p&gt;&lt;span style=&quot;white-space: pre;&quot;&gt;&#x9;&lt;/span&gt;&lt;span style=&quot;white-space: pre;&quot;&gt;&#x9;&lt;/span&gt;&lt;span style=&quot;white-space: pre;&quot;&gt;&#x9;&lt;/span&gt;&lt;span style=&quot;white-space: pre;&quot;&gt;&#x9;&lt;/span&gt;&lt;span style=&quot;white-space: pre;&quot;&gt;&#x9;&lt;/span&gt;&lt;span style=&quot;white-space: pre;&quot;&gt;&#x9;&lt;/span&gt;&lt;span style=&quot;white-space: pre;&quot;&gt;&#x9;&lt;/span&gt;&lt;span style=&quot;white-space: pre;&quot;&gt;&#x9;&lt;/span&gt;&lt;span style=&quot;white-space: pre;&quot;&gt;&#x9;&lt;/span&gt;&lt;span style=&quot;white-space: pre;&quot;&gt;&#x9;&lt;/span&gt;&lt;span style=&quot;white-space: pre;&quot;&gt;&#x9;&lt;/span&gt;&lt;span style=&quot;white-space: pre;&quot;&gt;&#x9;&lt;/span&gt;&lt;span style=&quot;white-space: pre;&quot;&gt;&#x9;&lt;/span&gt;&amp;nbsp;Hidden below dropdown menu.&amp;nbsp;&lt;/p&gt;&lt;p&gt;&lt;span style=&quot;background-color: transparent; color: light-dark(rgb(0, 0, 0), rgb(255, 255, 255));&quot;&gt;Lorem ipsum dolor sit amet, consectetur adipisicing elit, sed do eiusmod tempor incididunt ut labore et dolore magna aliqua.&lt;/span&gt;&lt;span style=&quot;background-color: transparent; color: light-dark(rgb(0, 0, 0), rgb(255, 255, 255));&quot;&gt;Lorem ipsum dolor sit amet, consectetur adipisicing elit, sed do eiusmod tempor incididunt ut labore et dolore magna aliqua.&lt;/span&gt;&lt;span style=&quot;background-color: transparent; color: light-dark(rgb(0, 0, 0), rgb(255, 255, 255));&quot;&gt;Lorem ipsum dolor sit amet, consectetur adipisicing elit, sed do eiusmod tempor incididunt ut labore et dolore magna aliqua.&lt;/span&gt;&lt;span style=&quot;background-color: transparent; color: light-dark(rgb(0, 0, 0), rgb(255, 255, 255));&quot;&gt;Lorem ipsum dolor sit amet, consectetur adipisicing elit, sed do eiusmod tempor incididunt ut labore et dolore magna aliqua.&lt;/span&gt;&lt;span style=&quot;background-color: transparent; color: light-dark(rgb(0, 0, 0), rgb(255, 255, 255));&quot;&gt;&amp;nbsp;&lt;/span&gt;&lt;/p&gt;" style="text;html=1;whiteSpace=wrap;overflow=hidden;rounded=0;" parent="1" vertex="1">
          <mxGeometry x="150" y="-2958.75" width="850" height="120" as="geometry" />
        </mxCell>
        <mxCell id="HMSEAZO2dh3-YYu0u6aI-42" value="&lt;h1 style=&quot;margin-top: 0px;&quot;&gt;&lt;span style=&quot;white-space: pre;&quot;&gt;&#x9;&lt;/span&gt;&lt;span style=&quot;white-space: pre;&quot;&gt;&#x9;&lt;/span&gt;&lt;span style=&quot;white-space: pre;&quot;&gt;&#x9;&lt;/span&gt;&lt;span style=&quot;white-space: pre;&quot;&gt;&#x9;&lt;/span&gt;&lt;span style=&quot;white-space: pre;&quot;&gt;&#x9;&lt;/span&gt;&amp;nbsp;Supporting Statement&lt;/h1&gt;&lt;p&gt;&lt;span style=&quot;white-space: pre;&quot;&gt;&#x9;&lt;/span&gt;&lt;span style=&quot;white-space: pre;&quot;&gt;&#x9;&lt;/span&gt;&lt;span style=&quot;white-space: pre;&quot;&gt;&#x9;&lt;/span&gt;&lt;span style=&quot;white-space: pre;&quot;&gt;&#x9;&lt;/span&gt;&lt;span style=&quot;white-space: pre;&quot;&gt;&#x9;&lt;/span&gt;&lt;span style=&quot;white-space: pre;&quot;&gt;&#x9;&lt;/span&gt;&lt;span style=&quot;white-space: pre;&quot;&gt;&#x9;&lt;/span&gt;&lt;span style=&quot;white-space: pre;&quot;&gt;&#x9;&lt;/span&gt;&lt;span style=&quot;white-space: pre;&quot;&gt;&#x9;&lt;/span&gt;&lt;span style=&quot;white-space: pre;&quot;&gt;&#x9;&lt;/span&gt;&lt;span style=&quot;white-space: pre;&quot;&gt;&#x9;&lt;/span&gt;&lt;span style=&quot;white-space: pre;&quot;&gt;&#x9;&lt;/span&gt;&lt;span style=&quot;white-space: pre;&quot;&gt;&#x9;&lt;/span&gt;&amp;nbsp;Hidden below dropdown menu.&amp;nbsp;&lt;/p&gt;&lt;p&gt;&lt;span style=&quot;background-color: transparent; color: light-dark(rgb(0, 0, 0), rgb(255, 255, 255));&quot;&gt;Lorem ipsum dolor sit amet, consectetur adipisicing elit, sed do eiusmod tempor incididunt ut labore et dolore magna aliqua.&lt;/span&gt;&lt;span style=&quot;background-color: transparent; color: light-dark(rgb(0, 0, 0), rgb(255, 255, 255));&quot;&gt;Lorem ipsum dolor sit amet, consectetur adipisicing elit, sed do eiusmod tempor incididunt ut labore et dolore magna aliqua.&lt;/span&gt;&lt;span style=&quot;background-color: transparent; color: light-dark(rgb(0, 0, 0), rgb(255, 255, 255));&quot;&gt;Lorem ipsum dolor sit amet, consectetur adipisicing elit, sed do eiusmod tempor incididunt ut labore et dolore magna aliqua.&lt;/span&gt;&lt;span style=&quot;background-color: transparent; color: light-dark(rgb(0, 0, 0), rgb(255, 255, 255));&quot;&gt;Lorem ipsum dolor sit amet, consectetur adipisicing elit, sed do eiusmod tempor incididunt ut labore et dolore magna aliqua.&lt;/span&gt;&lt;span style=&quot;background-color: transparent; color: light-dark(rgb(0, 0, 0), rgb(255, 255, 255));&quot;&gt;&amp;nbsp;&lt;/span&gt;&lt;/p&gt;" style="text;html=1;whiteSpace=wrap;overflow=hidden;rounded=0;" parent="1" vertex="1">
          <mxGeometry x="150" y="-2828.75" width="850" height="120" as="geometry" />
        </mxCell>
        <mxCell id="HMSEAZO2dh3-YYu0u6aI-43" value="" style="rounded=0;whiteSpace=wrap;html=1;" parent="1" vertex="1">
          <mxGeometry x="150" y="-2538.75" width="850" height="20" as="geometry" />
        </mxCell>
        <mxCell id="HMSEAZO2dh3-YYu0u6aI-44" value="Copyright, legal info" style="text;html=1;align=center;verticalAlign=middle;whiteSpace=wrap;rounded=0;" parent="1" vertex="1">
          <mxGeometry x="448" y="-2538.75" width="205" height="20" as="geometry" />
        </mxCell>
      </root>
    </mxGraphModel>
  </diagram>
  <diagram id="nVPRI7DeLthlSdgmkyNi" name="Tasks">
    <mxGraphModel dx="1434" dy="4144" grid="1" gridSize="10" guides="1" tooltips="1" connect="1" arrows="1" fold="1" page="1" pageScale="1" pageWidth="850" pageHeight="1100" math="0" shadow="0">
      <root>
        <mxCell id="0" />
        <mxCell id="1" parent="0" />
        <mxCell id="JSIMLjnoophcodjaRhGC-1" value="" style="rounded=0;whiteSpace=wrap;html=1;" parent="1" vertex="1">
          <mxGeometry x="150" y="-2690" width="850" height="840" as="geometry" />
        </mxCell>
        <mxCell id="JSIMLjnoophcodjaRhGC-2" value="" style="rounded=0;whiteSpace=wrap;html=1;" parent="1" vertex="1">
          <mxGeometry x="150" y="-2690" width="850" height="60" as="geometry" />
        </mxCell>
        <mxCell id="JSIMLjnoophcodjaRhGC-3" value="Logo/Title" style="text;html=1;align=center;verticalAlign=middle;whiteSpace=wrap;rounded=0;" parent="1" vertex="1">
          <mxGeometry x="150" y="-2685" width="120" height="50" as="geometry" />
        </mxCell>
        <mxCell id="JSIMLjnoophcodjaRhGC-4" value="Task" style="text;html=1;align=center;verticalAlign=middle;whiteSpace=wrap;rounded=0;" parent="1" vertex="1">
          <mxGeometry x="485" y="-2691.25" width="130" height="61.25" as="geometry" />
        </mxCell>
        <mxCell id="JSIMLjnoophcodjaRhGC-5" value="Contact" style="text;html=1;align=center;verticalAlign=middle;whiteSpace=wrap;rounded=0;" parent="1" vertex="1">
          <mxGeometry x="615" y="-2690" width="130" height="61.25" as="geometry" />
        </mxCell>
        <mxCell id="JSIMLjnoophcodjaRhGC-6" value="Home" style="text;html=1;align=center;verticalAlign=middle;whiteSpace=wrap;rounded=0;" parent="1" vertex="1">
          <mxGeometry x="355" y="-2691.25" width="130" height="61.25" as="geometry" />
        </mxCell>
        <mxCell id="JSIMLjnoophcodjaRhGC-11" value="" style="rounded=0;whiteSpace=wrap;html=1;" parent="1" vertex="1">
          <mxGeometry x="150" y="-1870" width="850" height="20" as="geometry" />
        </mxCell>
        <mxCell id="JSIMLjnoophcodjaRhGC-12" value="Copyright, legal info" style="text;html=1;align=center;verticalAlign=middle;whiteSpace=wrap;rounded=0;" parent="1" vertex="1">
          <mxGeometry x="448" y="-1870" width="205" height="20" as="geometry" />
        </mxCell>
        <mxCell id="JSIMLjnoophcodjaRhGC-15" value="" style="rounded=0;whiteSpace=wrap;html=1;" parent="1" vertex="1">
          <mxGeometry x="165" y="-2480" width="440" height="40" as="geometry" />
        </mxCell>
        <mxCell id="JSIMLjnoophcodjaRhGC-20" value="Task" style="text;html=1;align=center;verticalAlign=middle;whiteSpace=wrap;rounded=0;" parent="1" vertex="1">
          <mxGeometry x="340" y="-2475" width="60" height="30" as="geometry" />
        </mxCell>
        <mxCell id="JSIMLjnoophcodjaRhGC-21" value="" style="rounded=0;whiteSpace=wrap;html=1;" parent="1" vertex="1">
          <mxGeometry x="640" y="-2628.75" width="360" height="758.75" as="geometry" />
        </mxCell>
        <mxCell id="JSIMLjnoophcodjaRhGC-23" value="&lt;h1 style=&quot;margin-top: 0px;&quot;&gt;&lt;span style=&quot;white-space: pre;&quot;&gt;&#x9;&lt;/span&gt;&amp;nbsp; &amp;nbsp;Task Details Menu&lt;/h1&gt;&lt;div&gt;&lt;br&gt;&lt;/div&gt;&lt;div&gt;&amp;nbsp;Task info.&lt;/div&gt;&lt;div&gt;&lt;br&gt;&lt;/div&gt;&lt;div&gt;&lt;br&gt;&lt;/div&gt;&lt;div&gt;&lt;br&gt;&lt;/div&gt;&lt;div&gt;This menu is to be opened when a Task is clicked on to view description.&amp;nbsp;&lt;/div&gt;" style="text;html=1;whiteSpace=wrap;overflow=hidden;rounded=0;" parent="1" vertex="1">
          <mxGeometry x="640" y="-2590" width="360" height="320" as="geometry" />
        </mxCell>
        <mxCell id="JSIMLjnoophcodjaRhGC-25" value="" style="shape=mxgraph.mockup.markup.redX;fillColor=#ff0000;html=1;shadow=0;whiteSpace=wrap;strokeColor=none;" parent="1" vertex="1">
          <mxGeometry x="980" y="-2628.75" width="20" height="20" as="geometry" />
        </mxCell>
        <mxCell id="JSIMLjnoophcodjaRhGC-29" value="All" style="labelPosition=center;verticalLabelPosition=middle;align=center;html=1;shape=mxgraph.basic.button;dx=10;whiteSpace=wrap;" parent="1" vertex="1">
          <mxGeometry x="165" y="-2360" width="100" height="40" as="geometry" />
        </mxCell>
        <mxCell id="JSIMLjnoophcodjaRhGC-30" value="Uncomplete" style="labelPosition=center;verticalLabelPosition=middle;align=center;html=1;shape=mxgraph.basic.button;dx=10;whiteSpace=wrap;" parent="1" vertex="1">
          <mxGeometry x="275" y="-2360" width="90" height="40" as="geometry" />
        </mxCell>
        <mxCell id="JSIMLjnoophcodjaRhGC-31" value="" style="rounded=0;whiteSpace=wrap;html=1;" parent="1" vertex="1">
          <mxGeometry x="165" y="-2435" width="440" height="40" as="geometry" />
        </mxCell>
        <mxCell id="JSIMLjnoophcodjaRhGC-32" value="Task" style="text;html=1;align=center;verticalAlign=middle;whiteSpace=wrap;rounded=0;" parent="1" vertex="1">
          <mxGeometry x="340" y="-2430" width="60" height="30" as="geometry" />
        </mxCell>
        <mxCell id="JSIMLjnoophcodjaRhGC-33" value="Complete" style="labelPosition=center;verticalLabelPosition=middle;align=center;html=1;shape=mxgraph.basic.button;dx=10;whiteSpace=wrap;" parent="1" vertex="1">
          <mxGeometry x="375" y="-2360" width="90" height="40" as="geometry" />
        </mxCell>
        <mxCell id="JSIMLjnoophcodjaRhGC-35" value="" style="rounded=1;whiteSpace=wrap;html=1;" parent="1" vertex="1">
          <mxGeometry x="165" y="-2600" width="450" height="40" as="geometry" />
        </mxCell>
        <mxCell id="JSIMLjnoophcodjaRhGC-36" value="Task Name" style="text;html=1;align=center;verticalAlign=middle;whiteSpace=wrap;rounded=0;" parent="1" vertex="1">
          <mxGeometry x="340" y="-2600" width="60" height="30" as="geometry" />
        </mxCell>
        <mxCell id="JSIMLjnoophcodjaRhGC-38" value="" style="rounded=1;whiteSpace=wrap;html=1;" parent="1" vertex="1">
          <mxGeometry x="165" y="-2550" width="450" height="40" as="geometry" />
        </mxCell>
        <mxCell id="JSIMLjnoophcodjaRhGC-39" value="Description" style="text;html=1;align=center;verticalAlign=middle;whiteSpace=wrap;rounded=0;" parent="1" vertex="1">
          <mxGeometry x="340" y="-2550" width="60" height="30" as="geometry" />
        </mxCell>
        <mxCell id="T1dymD2H99PLeiTIXNt0-1" value="" style="html=1;verticalLabelPosition=bottom;align=center;labelBackgroundColor=#ffffff;verticalAlign=top;strokeWidth=2;strokeColor=#0080F0;shadow=0;dashed=0;shape=mxgraph.ios7.icons.trashcan;" vertex="1" parent="1">
          <mxGeometry x="570" y="-2475" width="24" height="30" as="geometry" />
        </mxCell>
        <mxCell id="T1dymD2H99PLeiTIXNt0-2" value="" style="html=1;verticalLabelPosition=bottom;align=center;labelBackgroundColor=#ffffff;verticalAlign=top;strokeWidth=2;strokeColor=#0080F0;shadow=0;dashed=0;shape=mxgraph.ios7.icons.trashcan;" vertex="1" parent="1">
          <mxGeometry x="570" y="-2430" width="24" height="30" as="geometry" />
        </mxCell>
      </root>
    </mxGraphModel>
  </diagram>
  <diagram id="N_Stcw0Q9riFVXe1DD85" name="Contact">
    <mxGraphModel dx="1434" dy="4144" grid="1" gridSize="10" guides="1" tooltips="1" connect="1" arrows="1" fold="1" page="1" pageScale="1" pageWidth="850" pageHeight="1100" math="0" shadow="0">
      <root>
        <mxCell id="0" />
        <mxCell id="1" parent="0" />
        <mxCell id="qGqSDlIkaSIBGCFRl8nP-1" value="" style="rounded=0;whiteSpace=wrap;html=1;" vertex="1" parent="1">
          <mxGeometry x="150" y="-2690" width="850" height="840" as="geometry" />
        </mxCell>
        <mxCell id="qGqSDlIkaSIBGCFRl8nP-2" value="" style="rounded=0;whiteSpace=wrap;html=1;" vertex="1" parent="1">
          <mxGeometry x="150" y="-2690" width="850" height="60" as="geometry" />
        </mxCell>
        <mxCell id="qGqSDlIkaSIBGCFRl8nP-3" value="Logo/Title" style="text;html=1;align=center;verticalAlign=middle;whiteSpace=wrap;rounded=0;" vertex="1" parent="1">
          <mxGeometry x="150" y="-2685" width="120" height="50" as="geometry" />
        </mxCell>
        <mxCell id="qGqSDlIkaSIBGCFRl8nP-4" value="Task" style="text;html=1;align=center;verticalAlign=middle;whiteSpace=wrap;rounded=0;" vertex="1" parent="1">
          <mxGeometry x="485" y="-2691.25" width="130" height="61.25" as="geometry" />
        </mxCell>
        <mxCell id="qGqSDlIkaSIBGCFRl8nP-5" value="Contact" style="text;html=1;align=center;verticalAlign=middle;whiteSpace=wrap;rounded=0;" vertex="1" parent="1">
          <mxGeometry x="615" y="-2690" width="130" height="61.25" as="geometry" />
        </mxCell>
        <mxCell id="qGqSDlIkaSIBGCFRl8nP-6" value="Home" style="text;html=1;align=center;verticalAlign=middle;whiteSpace=wrap;rounded=0;" vertex="1" parent="1">
          <mxGeometry x="355" y="-2691.25" width="130" height="61.25" as="geometry" />
        </mxCell>
        <mxCell id="qGqSDlIkaSIBGCFRl8nP-11" value="" style="rounded=0;whiteSpace=wrap;html=1;" vertex="1" parent="1">
          <mxGeometry x="150" y="-1870" width="850" height="20" as="geometry" />
        </mxCell>
        <mxCell id="qGqSDlIkaSIBGCFRl8nP-12" value="Copyright, legal info" style="text;html=1;align=center;verticalAlign=middle;whiteSpace=wrap;rounded=0;" vertex="1" parent="1">
          <mxGeometry x="448" y="-1870" width="205" height="20" as="geometry" />
        </mxCell>
        <mxCell id="qGqSDlIkaSIBGCFRl8nP-13" value="First name" style="html=1;shadow=0;dashed=0;shape=mxgraph.bootstrap.rrect;rSize=5;fillColor=none;strokeColor=#999999;align=left;spacing=15;fontSize=14;fontColor=#6C767D;" vertex="1" parent="1">
          <mxGeometry x="170" y="-2560" width="390" height="30" as="geometry" />
        </mxCell>
        <mxCell id="qGqSDlIkaSIBGCFRl8nP-14" value="Last name" style="html=1;shadow=0;dashed=0;shape=mxgraph.bootstrap.rrect;rSize=5;fillColor=none;strokeColor=#999999;align=left;spacing=15;fontSize=14;fontColor=#6C767D;" vertex="1" parent="1">
          <mxGeometry x="580" y="-2560" width="390" height="30" as="geometry" />
        </mxCell>
        <mxCell id="qGqSDlIkaSIBGCFRl8nP-15" value="Email" style="html=1;shadow=0;dashed=0;shape=mxgraph.bootstrap.rrect;rSize=5;fillColor=none;strokeColor=#999999;align=left;spacing=15;fontSize=14;fontColor=#6C767D;" vertex="1" parent="1">
          <mxGeometry x="170" y="-2500" width="800" height="30" as="geometry" />
        </mxCell>
        <mxCell id="qGqSDlIkaSIBGCFRl8nP-16" value="" style="rounded=1;whiteSpace=wrap;html=1;" vertex="1" parent="1">
          <mxGeometry x="172.5" y="-2430" width="795" height="260" as="geometry" />
        </mxCell>
        <mxCell id="qGqSDlIkaSIBGCFRl8nP-17" value="Submit" style="labelPosition=center;verticalLabelPosition=middle;align=center;html=1;shape=mxgraph.basic.button;dx=10;whiteSpace=wrap;" vertex="1" parent="1">
          <mxGeometry x="200" y="-2130" width="80" height="40" as="geometry" />
        </mxCell>
        <mxCell id="qGqSDlIkaSIBGCFRl8nP-18" value="Comments" style="text;html=1;align=center;verticalAlign=middle;whiteSpace=wrap;rounded=0;" vertex="1" parent="1">
          <mxGeometry x="190" y="-2460" width="60" height="30" as="geometry" />
        </mxCell>
        <mxCell id="qGqSDlIkaSIBGCFRl8nP-19" value="Name:" style="text;html=1;align=center;verticalAlign=middle;whiteSpace=wrap;rounded=0;" vertex="1" parent="1">
          <mxGeometry x="170" y="-2590" width="60" height="30" as="geometry" />
        </mxCell>
        <mxCell id="qGqSDlIkaSIBGCFRl8nP-20" value="Email" style="text;html=1;align=center;verticalAlign=middle;whiteSpace=wrap;rounded=0;" vertex="1" parent="1">
          <mxGeometry x="172.5" y="-2530" width="60" height="30" as="geometry" />
        </mxCell>
      </root>
    </mxGraphModel>
  </diagram>
</mxfile>
